-
 
http://www.Speed. Cd       the fast  and The Hottest Private Tracker on the net 
http://www.Speed. Cd

Please Seed back to make the speed Faster!!
 ............ NFO .............
-
 
http://www.Speed. Cd                              XViD is DEAD, Embrace the almighty x264!
             ,                                 ri                                                           
            .@M                     H@i,,,,,,;@@@@:            ...                                          
             @@:r@@@@@@@@@@@@@##@@@@@@@@@@@@@@@@@@@@@@@@@@@@@@@@@@@@2                                       
             M@@@@#BB###MM###MHA@@@#M########A&&AB#@@@@@@@@@@@@@@@@@@@@.                                    
 22;,9#AGG&h2#@@;hBs:,:##M;,,i@@BAGBAABMBBBBMHHHBMM################@@@@@:.   ....... ..  ...............:.  
 @@@@@@@@@@@@#M@#@MhMMA&GAAHBHMHh&GHBMHBMMMMM##MMBMBMM#BBHHBBBBBBHBBM#@@@@@M@@@@@@@@@@@@@@@@@@@@@@@@@@@@@A  
 :,  :r;::::,    &@AAAAAAAHBBHHHHBM#@@#@@@@#MAGABBBHH&3###MMMBABBHHBMH@B@A@@@.is,:;;;;;;;;;;;;;;;:;;:::9@h  
                  :,,........,;SHBh#AsXGi5MAAH&A#M#A3A2&AM@AB#MBHHBBBB#@@HBMh,S.                       ,@A  
                                          ##G##MBBM@#@     B 2@BHHHB#A  ,::rBMB@@@@@H2r,               :@A  
                                          @MA@###@h:@@       5@@#MBM#;           .;i9#@@@@@@A2r,        @M  
                                         :@BM@@##@r ;..   .   :X@#HB#.                  .:s3M@@@@@@#3r. @@  
                                         9@&#@###@              B@MM@@                          :r3#@@@@@@5 
                                         @@&@###@M               @@#@@M                               .:rAS 
                                        r@HM@###@r               :@##@@2                                    
                                        @@A@@##@@                 i###@@i                                   
                                       ;@M#@###@2                 ,@@@#Bs                                   
                                       @@#@###@@                   r,                                       
                                      H@#@@###@s                                                            
                                     S@@@####@#                                                             
                                    2@@@@###@@                                                              
                                    #@@@@@##@,                                                              
                                      ;M@@@@2                                                               
                                         i@@                                                                
                                    AKS74u
                                   Presents
------------------------------------------------------------------------------------------------------------------------------
Source: |||Blu-Ray|||
Subtitle(s): Yes (English and Spanish + source .sup files)
iMDB: http://www.imdb.com/title/tt1783732/
CRF-Setting: 19

General
Complete name                            : John.Dies.At.The.End.2012.BDRip.AAC-5.1.x264-AKS74ujdate-bdrip-aks74u.mp4
Format                                   : MPEG-4
Format profile                           : Base Media
Codec ID                                 : isom
File size                                : 829 MiB
Duration                                 : 1h 39mn
Overall bit rate mode                    : Variable
Overall bit rate                         : 1 165 Kbps
Encoded date                             : UTC 2013-03-22 23:54:36
Tagged date                              : UTC 2013-03-22 23:54:36

Video
ID                                       : 1
Format                                   : AVC
Format/Info                              : Advanced Video Codec
Format profile                           : High@L3.1
Format settings, CABAC                   : Yes
Format settings, ReFrames                : 5 frames
Codec ID                                 : avc1
Codec ID/Info                            : Advanced Video Coding
Duration                                 : 1h 39mn
Bit rate                                 : 853 Kbps
Maximum bit rate                         : 6 399 Kbps
Width                                    : 720 pixels
Height                                   : 404 pixels
Display aspect ratio                     : 16:9
Frame rate mode                          : Constant
Frame rate                               : 23.976 fps
Color space                              : YUV
Chroma subsampling                       : 4:2:0
Bit depth                                : 8 bits
Scan type                                : Progressive
Bits/(Pixel*Frame)                       : 0.122
Stream size                              : 608 MiB (73%)
Writing library                          : x264 core 130 r2273 b3065e6
Encoded date                             : UTC 2013-03-22 22:54:56
Tagged date                              : UTC 2013-03-22 23:55:40

Audio
ID                                       : 2
Format                                   : AAC
Format/Info                              : Advanced Audio Codec
Format profile                           : LC
Codec ID                                 : 40
Duration                                 : 1h 39mn
Bit rate mode                            : Variable
Bit rate                                 : 307 Kbps
Maximum bit rate                         : 402 Kbps
Channel(s)                               : 6 channels
Channel positions                        : Front: L C R, Side: L R, LFE
Sampling rate                            : 48.0 KHz
Compression mode                         : Lossy
Delay relative to video                  : 83ms
Stream size                              : 219 MiB (26%)
Language                                 : English
Encoded date                             : UTC 2013-03-22 23:42:51
Tagged date                              : UTC 2013-03-22 23:55:40
------------------------------------------------------------------------------------------------------------------------------
Plot: A new street drug that sends its users across time and dimensions has one drawback: some people return as no longer human. 
Can two college dropouts save humankind from this silent, otherworldly invasion?
------------------------------------------------------------------------------------------------------------------------------
Notes: Enjoy!
------------------------------------------------------------------------------------------------------------------------------
Contact @ aks74u@hushmail.com
currently looking for ANYTHING. If you have something to offer, contact me!
------------------------------------------------------------------------------------------------------------------------------
Welcome to the few that give p2p a good name
CM8, Rx, AXED and SANTi just to name a few